<?xml version="1.0" encoding="utf-8"?>
<!-- Generator: Adobe Illustrator 25.2.0, SVG Export Plug-In . SVG Version: 6.00 Build 0)  -->
<svg version="1.1" id="Layer_1" xmlns="http://www.w3.org/2000/svg" xmlns:xlink="http://www.w3.org/1999/xlink" x="0px" y="0px"
	 viewBox="0 0 48.3 64.9" style="enable-background:new 0 0 48.3 64.9;" xml:space="preserve">
<style type="text/css">
	.st0{fill-rule:evenodd;clip-rule:evenodd;fill:#FDD0B3;}
	.st1{fill-rule:evenodd;clip-rule:evenodd;fill:#F8E16C;}
	.st2{fill:#8E8EA8;}
	.st3{filter:url(#Adobe_OpacityMaskFilter);}
	.st4{fill-rule:evenodd;clip-rule:evenodd;fill:#FFFFFF;}
	.st5{mask:url(#mask-4_4_);fill-rule:evenodd;clip-rule:evenodd;fill:#8E8EA8;}
	.st6{filter:url(#Adobe_OpacityMaskFilter_1_);}
	.st7{mask:url(#mask-4_3_);fill-rule:evenodd;clip-rule:evenodd;fill:#8E8EA8;}
	.st8{filter:url(#Adobe_OpacityMaskFilter_2_);}
	.st9{mask:url(#mask-4_1_);fill-rule:evenodd;clip-rule:evenodd;fill:#8E8EA8;}
</style>
<rect id="Rectangle" x="1.5" y="18.4" class="st0" width="44.5" height="44"/>
<rect id="Rectangle_1_" x="2.5" y="3.3" class="st1" width="43.5" height="14.5"/>
<path class="st2" d="M48.3,4.1c0-2.3-1.8-4.1-4.1-4.1h-40C1.8,0,0,1.8,0,4.1l0.1,56.7c0,2.3,1.8,4.1,4.1,4.1h40
	c2.3,0,4.1-1.8,4.1-4.1L48.3,4.1z M44.2,61.6h-40c-0.4,0-0.8-0.3-0.8-0.8L3.4,4.1c0-0.4,0.3-0.8,0.8-0.8h40c0.4,0,0.8,0.3,0.8,0.8
	L45,60.8C45,61.2,44.6,61.6,44.2,61.6z"/>
<defs>
	<filter id="Adobe_OpacityMaskFilter" filterUnits="userSpaceOnUse" x="2.5" y="15" width="43.5" height="3.5">
		<feColorMatrix  type="matrix" values="1 0 0 0 0  0 1 0 0 0  0 0 1 0 0  0 0 0 1 0"/>
	</filter>
</defs>
<mask maskUnits="userSpaceOnUse" x="2.5" y="15" width="43.5" height="3.5" id="mask-4_4_">
	<g class="st3">
		<polygon id="path-3_4_" class="st4" points="0,64.5 48,64.5 48,0 0,0 		"/>
	</g>
</mask>
<polygon id="Fill-4" class="st5" points="2.5,18.5 46,18.5 46,15 2.5,15 "/>
<defs>
	<filter id="Adobe_OpacityMaskFilter_1_" filterUnits="userSpaceOnUse" x="14.5" y="7" width="5" height="5">
		<feColorMatrix  type="matrix" values="1 0 0 0 0  0 1 0 0 0  0 0 1 0 0  0 0 0 1 0"/>
	</filter>
</defs>
<mask maskUnits="userSpaceOnUse" x="14.5" y="7" width="5" height="5" id="mask-4_3_">
	<g class="st6">
		<polygon id="path-3_3_" class="st4" points="0,64.5 48,64.5 48,0 0,0 		"/>
	</g>
</mask>
<path id="Fill-7" class="st7" d="M17,7c-1.4,0-2.5,1.1-2.5,2.5S15.6,12,17,12c1.4,0,2.5-1.1,2.5-2.5S18.4,7,17,7"/>
<defs>
	<filter id="Adobe_OpacityMaskFilter_2_" filterUnits="userSpaceOnUse" x="22" y="7" width="5" height="5">
		<feColorMatrix  type="matrix" values="1 0 0 0 0  0 1 0 0 0  0 0 1 0 0  0 0 0 1 0"/>
	</filter>
</defs>
<mask maskUnits="userSpaceOnUse" x="22" y="7" width="5" height="5" id="mask-4_1_">
	<g class="st8">
		<polygon id="path-3_1_" class="st4" points="0,64.5 48,64.5 48,0 0,0 		"/>
	</g>
</mask>
<path id="Fill-8" class="st9" d="M24.5,7C23.1,7,22,8.1,22,9.5s1.1,2.5,2.5,2.5c1.4,0,2.5-1.1,2.5-2.5S25.9,7,24.5,7"/>
</svg>
