<?xml version="1.0" encoding="utf-8"?>
<!-- Generator: Adobe Illustrator 25.2.0, SVG Export Plug-In . SVG Version: 6.00 Build 0)  -->
<svg version="1.1" id="Layer_1" xmlns="http://www.w3.org/2000/svg" xmlns:xlink="http://www.w3.org/1999/xlink" x="0px" y="0px"
	 viewBox="0 0 67.6 63.8" style="enable-background:new 0 0 67.6 63.8;" xml:space="preserve">
<style type="text/css">
	.st0{fill-rule:evenodd;clip-rule:evenodd;fill:#F8E16C;}
	.st1{fill-rule:evenodd;clip-rule:evenodd;fill:#8E8EA8;}
	.st2{filter:url(#Adobe_OpacityMaskFilter);}
	.st3{fill-rule:evenodd;clip-rule:evenodd;fill:#FFFFFF;}
	.st4{mask:url(#mask-2_2_);fill-rule:evenodd;clip-rule:evenodd;fill:#8E8EA8;}
	.st5{fill-rule:evenodd;clip-rule:evenodd;fill:#FDD0B3;}
</style>
<circle id="Oval" class="st0" cx="20.8" cy="57.1" r="3.8"/>
<circle id="Oval_1_" class="st0" cx="60.3" cy="57.1" r="3.8"/>
<path id="Fill-1_1_" class="st1" d="M20.5,13.3c-3,0-5.3,2.7-4.9,5.7l3.7,24.6c0.4,2.4,2.4,4.2,4.9,4.2h33.7c2.4,0,4.5-1.8,4.9-4.2
	L66.5,19c0.5-3-1.8-5.7-4.9-5.7H20.5z M62.6,17.5c0.1,0.2,0.4,0.5,0.3,1L59.1,43c-0.1,0.6-0.6,1.1-1.2,1.1H24.3
	c-0.6,0-1.1-0.4-1.2-1.1l-3.7-24.6c-0.1-0.5,0.1-0.8,0.3-1c0.1-0.2,0.4-0.4,0.9-0.4h41.2C62.2,17,62.5,17.3,62.6,17.5z"/>
<path id="Fill-3" class="st1" d="M21.1,50.8c-3.6,0-6.5,2.9-6.5,6.5s2.9,6.5,6.5,6.5c3.6,0,6.5-2.9,6.5-6.5S24.7,50.8,21.1,50.8
	 M21.1,54.5c1.6,0,2.9,1.3,2.9,2.9s-1.3,2.9-2.9,2.9s-2.9-1.3-2.9-2.9S19.5,54.5,21.1,54.5"/>
<path id="Fill-5" class="st1" d="M61.1,50.8c-3.6,0-6.5,2.9-6.5,6.5s2.9,6.5,6.5,6.5c3.6,0,6.5-2.9,6.5-6.5S64.7,50.8,61.1,50.8
	 M61.1,54.5c1.6,0,2.9,1.3,2.9,2.9s-1.3,2.9-2.9,2.9s-2.9-1.3-2.9-2.9S59.5,54.5,61.1,54.5"/>
<g id="Group-9_1_">
	<g id="Clip-8">
	</g>
	<defs>
		<filter id="Adobe_OpacityMaskFilter" filterUnits="userSpaceOnUse" x="0" y="0" width="19.5" height="21.7">
			<feColorMatrix  type="matrix" values="1 0 0 0 0  0 1 0 0 0  0 0 1 0 0  0 0 0 1 0"/>
		</filter>
	</defs>
	<mask maskUnits="userSpaceOnUse" x="0" y="0" width="19.5" height="21.7" id="mask-2_2_">
		<g class="st2">
			<polygon id="path-1_2_" class="st3" points="0,0 19.5,0 19.5,21.7 0,21.7 			"/>
		</g>
	</mask>
	<path id="Fill-7_1_" class="st4" d="M17.7,21.7c-0.9,0-1.7-0.7-1.8-1.6L13.4,3.6H1.8C0.8,3.6,0,2.8,0,1.8S0.8,0,1.8,0h14.8
		l2.9,19.7c0.1,1-0.6,1.9-1.6,2C17.8,21.7,17.7,21.7,17.7,21.7"/>
</g>
<path id="Path" class="st5" d="M62.6,17.5c0.1,0.2,0.4,0.5,0.3,1L59.1,43c-0.1,0.6-0.6,1.1-1.2,1.1H24.3c-0.6,0-1.1-0.4-1.2-1.1
	l-3.7-24.6c-0.1-0.5,0.1-0.8,0.3-1c0.1-0.2,0.4-0.4,0.9-0.4h41.2C62.2,17,62.5,17.3,62.6,17.5z"/>
</svg>
