<?xml version="1.0" encoding="UTF-8"?>
<svg width="135px" height="127px" viewBox="0 0 135 127" version="1.1" xmlns="http://www.w3.org/2000/svg" xmlns:xlink="http://www.w3.org/1999/xlink">
    <title>Shopify Customization@2x</title>
    <defs>
        <polygon id="path-1" points="0.000105405405 0.387717647 39.0002717 0.387717647 39.0002717 43.8705365 0.000105405405 43.8705365"></polygon>
    </defs>
    <g id="Index" stroke="none" stroke-width="1" fill="none" fill-rule="evenodd">
        <g id="Desktop-HD" transform="translate(-180.000000, -2609.000000)">
            <g id="SERVICES" transform="translate(0.000000, 2162.023438)">
                <g id="Shopify-Customization" transform="translate(180.000000, 447.000000)">
                    <circle id="Oval" fill="#F8E16C" cx="41.5" cy="112.5" r="7.5"></circle>
                    <circle id="Oval" fill="#F8E16C" cx="120.5" cy="112.5" r="7.5"></circle>
                    <path d="M40.8338735,25 C34.8081632,25 30.2002052,30.4170308 31.1164289,36.4237462 L38.6162016,85.5920846 C39.3540222,90.4289846 43.4809759,94 48.3336462,94 L115.665828,94 C120.519024,94 124.645978,90.4289846 125.383272,85.5920846 L132.883571,36.4237462 C133.799795,30.4170308 129.191837,25 123.166126,25 L40.8338735,25 Z M125.036465,33.2980462 C125.3117,33.6218154 125.75113,34.3112846 125.601671,35.2937385 L118.101372,84.4620769 C117.915075,85.6833769 116.890968,86.5692308 115.665828,86.5692308 L48.3336462,86.5692308 C47.1090324,86.5692308 46.0843985,85.6833769 45.8981015,84.4620769 L38.3983288,35.2937385 C38.2483439,34.3112846 38.6882996,33.6218154 38.9635351,33.2980462 C39.2387706,32.9737462 39.8481831,32.4307692 40.8338735,32.4307692 L123.166126,32.4307692 C124.151817,32.4307692 124.760703,32.9737462 125.036465,33.2980462 Z" id="Fill-1" fill="#8E8EA8"></path>
                    <path d="M42,100 C34.81984,100 29,105.82036 29,113 C29,120.17964 34.81984,126 42,126 C49.17964,126 55,120.17964 55,113 C55,105.82036 49.17964,100 42,100 M42,107.28 C45.1538,107.28 47.72,109.8462 47.72,113 C47.72,116.1538 45.1538,118.72 42,118.72 C38.8462,118.72 36.28,116.1538 36.28,113 C36.28,109.8462 38.8462,107.28 42,107.28" id="Fill-3" fill="#8E8EA8"></path>
                    <path d="M122,100 C114.81984,100 109,105.82036 109,113 C109,120.17964 114.81984,126 122,126 C129.17964,126 135,120.17964 135,113 C135,105.82036 129.17964,100 122,100 M122,107.28 C125.1538,107.28 127.72,109.8462 127.72,113 C127.72,116.1538 125.1538,118.72 122,118.72 C118.8462,118.72 116.28,116.1538 116.28,113 C116.28,109.8462 118.8462,107.28 122,107.28" id="Fill-5" fill="#8E8EA8"></path>
                    <g id="Group-9">
                        <mask id="mask-2" fill="white">
                            <use xlink:href="#path-1"></use>
                        </mask>
                        <g id="Clip-8"></g>
                        <path d="M35.306173,43.8705365 C33.4995243,43.8705365 31.9216054,42.5660659 31.6586189,40.75896 L26.8410649,7.63472471 L3.68929459,7.63472471 C1.65180811,7.63472471 0.000105405405,6.01241882 0.000105405405,4.01119529 C0.000105405405,2.00997176 1.65180811,0.387665882 3.68929459,0.387665882 L33.240227,0.387665882 L38.9626865,39.7340188 C39.2509703,41.7150541 37.8496054,43.5506306 35.832673,43.8337835 C35.6555919,43.8586306 35.4795649,43.8705365 35.306173,43.8705365" id="Fill-7" fill="#8E8EA8" mask="url(#mask-2)"></path>
                    </g>
                    <path d="M125.036465,33.2980462 C125.3117,33.6218154 125.75113,34.3112846 125.601671,35.2937385 L118.101372,84.4620769 C117.915075,85.6833769 116.890968,86.5692308 115.665828,86.5692308 L48.3336462,86.5692308 C47.1090324,86.5692308 46.0843985,85.6833769 45.8981015,84.4620769 L38.3983288,35.2937385 C38.2483439,34.3112846 38.6882996,33.6218154 38.9635351,33.2980462 C39.2387706,32.9737462 39.8481831,32.4307692 40.8338735,32.4307692 L123.166126,32.4307692 C124.151817,32.4307692 124.760703,32.9737462 125.036465,33.2980462 Z" id="Path" fill="#FDD0B3"></path>
                </g>
            </g>
        </g>
    </g>
</svg>