<?xml version="1.0" encoding="UTF-8"?>
<svg width="97px" height="131px" viewBox="0 0 97 131" version="1.1" xmlns="http://www.w3.org/2000/svg" xmlns:xlink="http://www.w3.org/1999/xlink">
    <title>Group 14@2x</title>
    <defs>
        <polygon id="path-1" points="0 4.81481481e-05 96.5552886 4.81481481e-05 96.5552886 130 0 130"></polygon>
    </defs>
    <g id="Index" stroke="none" stroke-width="1" fill="none" fill-rule="evenodd">
        <g id="Desktop-HD" transform="translate(-1371.000000, -2607.000000)">
            <g id="SERVICES" transform="translate(0.000000, 2162.023438)">
                <g id="Group-14" transform="translate(1371.000000, 445.000000)">
                    <polygon id="Path-5" fill="#FDD0B3" points="3.02129452 6.74078889 9.51034606 4 55.0741927 4 55.0741927 31.9051243 57.8314781 36.8933581 65.0680709 41.5467778 93 41.5467778 93 121.635729 86.1229119 126.997934 9.51034606 128.383101 3.02129452 121.635729"></polygon>
                    <polygon id="Path-4" fill="#F8E16C" points="56 5.87033484 92.1806608 39.179889 66.1171961 41.0272255 56.5005895 36.4723434"></polygon>
                    <g id="Group-3">
                        <mask id="mask-2" fill="white">
                            <use xlink:href="#path-1"></use>
                        </mask>
                        <g id="Clip-2"></g>
                        <path d="M59.107046,4.81481479e-05 L8.23342723,4.81481479e-05 C3.68643218,4.81481479e-05 -4.80198021e-05,3.6959 -4.80198021e-05,8.25552963 L-4.80198021e-05,121.744567 C-4.80198021e-05,126.304196 3.68643218,130.000048 8.23342723,130.000048 L88.3222936,130.000048 C92.8692886,130.000048 96.5552886,126.304196 96.5552886,121.744567 L96.5552886,37.5483815 L59.107046,4.81481479e-05 Z M56.3223777,6.74078889 L89.8325163,40.3404926 L89.8325163,121.744567 C89.8325163,122.579937 89.1549569,123.259307 88.3222936,123.259307 L8.23342723,123.259307 C7.40028366,123.259307 6.72272426,122.579937 6.72272426,121.744567 L6.72272426,8.25552963 C6.72272426,7.42015926 7.40028366,6.74078889 8.23342723,6.74078889 L56.3223777,6.74078889 L56.3223777,6.74078889 Z" id="Fill-1" fill="#8E8EA8" mask="url(#mask-2)"></path>
                    </g>
                    <path d="M93,45 L63.6484674,45 C57.2257693,45 52,39.7742307 52,33.3515326 L52,4 L58.7541331,4 L58.7541331,33.3515326 C58.7541331,36.0502912 60.9492263,38.2458669 63.6484674,38.2458669 L93,38.2458669 L93,45 Z" id="Fill-4" fill="#8E8EA8"></path>
                    <path d="M33.5850757,83 C32.7114053,83 31.8372471,82.6706651 31.1704088,82.0129584 L19,69.9999398 L31.1704088,57.9869212 C32.5040854,56.6710263 34.6660659,56.6710263 35.9997425,57.9869212 C37.3334192,59.3032977 37.3334192,61.4372335 35.9997425,62.75361 L28.6576918,69.9999398 L35.9997425,77.2462697 C37.3334192,78.5626461 37.3334192,80.6965819 35.9997425,82.0129584 C35.3329042,82.6706651 34.4587461,83 33.5850757,83" id="Fill-6" fill="#8E8EA8"></path>
                    <path d="M62.4149243,83 C61.5412539,83 60.6670958,82.6706651 60.0002575,82.0129584 C58.6665808,80.6965819 58.6665808,78.5626461 60.0002575,77.2462697 L67.3423082,69.9999398 L60.0002575,62.75361 C58.6665808,61.4372335 58.6665808,59.3032977 60.0002575,57.9869212 C61.3339341,56.6710263 63.4959146,56.6710263 64.8295912,57.9869212 L77,69.9999398 L64.8295912,82.0129584 C64.1627529,82.6706651 63.2885947,83 62.4149243,83" id="Fill-8" fill="#8E8EA8"></path>
                    <line x1="53" y1="55" x2="43" y2="84" id="Fill-10" fill="#8E8EA8"></line>
                    <path d="M43.2951064,88 C42.9502032,88 42.5987125,87.9435714 42.2528683,87.8243903 C40.5274113,87.2299441 39.5948081,85.301156 40.1698036,83.5173309 L49.5805318,54.3301206 C50.1559978,52.5458092 52.0207336,51.580199 53.7471317,52.1761045 C55.4725887,52.7710371 56.4051919,54.6993388 55.8301964,56.4831638 L46.4194682,85.6703742 C45.9592836,87.0976287 44.6742486,88 43.2951064,88" id="Fill-12" fill="#8E8EA8"></path>
                </g>
            </g>
        </g>
    </g>
</svg>