<?xml version="1.0" encoding="utf-8"?>
<!-- Generator: Adobe Illustrator 25.2.0, SVG Export Plug-In . SVG Version: 6.00 Build 0)  -->
<svg version="1.1" id="Layer_1" xmlns="http://www.w3.org/2000/svg" xmlns:xlink="http://www.w3.org/1999/xlink" x="0px" y="0px"
	 viewBox="0 0 48.3 65" style="enable-background:new 0 0 48.3 65;" xml:space="preserve">
<style type="text/css">
	.st0{fill-rule:evenodd;clip-rule:evenodd;fill:#FDD0B3;}
	.st1{fill-rule:evenodd;clip-rule:evenodd;fill:#F8E16C;}
	.st2{filter:url(#Adobe_OpacityMaskFilter);}
	.st3{fill-rule:evenodd;clip-rule:evenodd;fill:#FFFFFF;}
	.st4{mask:url(#mask-2_2_);fill-rule:evenodd;clip-rule:evenodd;fill:#8E8EA8;}
	.st5{fill-rule:evenodd;clip-rule:evenodd;fill:#8E8EA8;}
	.st6{fill:none;}
</style>
<g id="Index_2_">
	<g id="Desktop-HD_2_" transform="translate(-1371.000000, -2607.000000)">
		<g id="SERVICES_2_" transform="translate(0.000000, 2162.023438)">
			<g id="Group-14" transform="translate(1371.000000, 445.000000)">
				<polygon id="Path-5" class="st0" points="1.5,3.3 4.8,2 27.5,2 27.5,15.9 28.9,18.4 32.5,20.7 46.5,20.7 46.5,60.8 43.1,63.5 
					4.8,64.2 1.5,60.8 				"/>
				<polygon id="Path-4" class="st1" points="28,2.9 46.1,19.6 33.1,20.5 28.3,18.2 				"/>
				<g id="Group-3_1_">
					<g id="Clip-2_1_">
					</g>
					<defs>
						<filter id="Adobe_OpacityMaskFilter" filterUnits="userSpaceOnUse" x="0" y="0" width="48.3" height="65">
							<feColorMatrix  type="matrix" values="1 0 0 0 0  0 1 0 0 0  0 0 1 0 0  0 0 0 1 0"/>
						</filter>
					</defs>
					<mask maskUnits="userSpaceOnUse" x="0" y="0" width="48.3" height="65" id="mask-2_2_">
						<g class="st2">
							<polygon id="path-1_2_" class="st3" points="0,0 48.3,0 48.3,65 0,65 							"/>
						</g>
					</mask>
					<path id="Fill-1_2_" class="st4" d="M29.6,0H4.1C1.8,0,0,1.8,0,4.1v56.7C0,63.1,1.8,65,4.1,65h40c2.3,0,4.1-1.8,4.1-4.1V18.8
						L29.6,0z M28.2,3.3l16.8,16.8v40.7c0,0.4-0.3,0.8-0.8,0.8h-40c-0.4,0-0.8-0.3-0.8-0.8V4.1c0-0.4,0.3-0.8,0.8-0.8H28.2L28.2,3.3
						z"/>
				</g>
				<path id="Fill-4_1_" class="st5" d="M46.5,22.5H31.8c-3.2,0-5.8-2.6-5.8-5.8V2h3.4v14.7c0,1.3,1.1,2.4,2.4,2.4h14.7V22.5z"/>
				<path id="Fill-6_1_" class="st5" d="M16.8,41.5c-0.4,0-0.9-0.2-1.2-0.5l-6.1-6l6.1-6c0.7-0.7,1.7-0.7,2.4,0
					c0.7,0.7,0.7,1.7,0,2.4L14.3,35l3.7,3.6c0.7,0.7,0.7,1.7,0,2.4C17.7,41.3,17.2,41.5,16.8,41.5"/>
				<path id="Fill-8_1_" class="st5" d="M31.2,41.5c-0.4,0-0.9-0.2-1.2-0.5c-0.7-0.7-0.7-1.7,0-2.4l3.7-3.6L30,31.4
					c-0.7-0.7-0.7-1.7,0-2.4c0.7-0.7,1.7-0.7,2.4,0l6.1,6l-6.1,6C32.1,41.3,31.6,41.5,31.2,41.5"/>
				<line id="Fill-10" class="st6" x1="26.5" y1="27.5" x2="21.5" y2="42"/>
				<path id="Fill-12" class="st5" d="M21.6,44c-0.2,0-0.3,0-0.5-0.1c-0.9-0.3-1.3-1.3-1-2.2l4.7-14.6c0.3-0.9,1.2-1.4,2.1-1.1
					c0.9,0.3,1.3,1.3,1,2.2l-4.7,14.6C23,43.5,22.3,44,21.6,44"/>
			</g>
		</g>
	</g>
</g>
</svg>
