<?xml version="1.0" encoding="utf-8"?>
<!-- Generator: Adobe Illustrator 25.2.0, SVG Export Plug-In . SVG Version: 6.00 Build 0)  -->
<svg version="1.1" id="Layer_1" xmlns="http://www.w3.org/2000/svg" xmlns:xlink="http://www.w3.org/1999/xlink" x="0px" y="0px"
	 viewBox="0 0 631.7 670.2" style="enable-background:new 0 0 631.7 670.2;" xml:space="preserve">
<style type="text/css">
	.st0{fill:#00C49A;}
	.st1{fill:#C7C7E9;}
	.st2{fill:#8E8EA8;}
	.st3{fill:#F8E16C;}
</style>
<g id="g10" transform="translate(382.500000, 336.000000) scale(-1, 1) rotate(-180.000000) translate(-382.500000, -336.000000) translate(66.000000, -0.000000)">
	<g id="g12" transform="translate(310.115569, 154.652548)">
		<polygon id="path14" class="st0" points="-15.1,414.2 -66.7,414.2 -66.7,1.8 -15.1,1.8 36.4,1.8 		"/>
	</g>
	<g id="g16" transform="translate(0.360966, 0.000000)">
		<polygon id="path18" class="st1" points="37.1,259.6 36.8,259.6 -66.3,259.6 -66.3,156 -66.3,1.8 139.7,1.8 242.7,1.8 242.7,2.5 
			243.2,2.5 346.2,2.5 346.2,156.5 243.1,259.6 		"/>
	</g>
	<g id="g20" transform="translate(0.716202, 0.000000)">
		<polygon id="path22" class="st0" points="139.6,156.5 36.4,259.6 36.4,156.5 -66.7,259.6 -66.7,156.4 -66.7,2.1 242.7,2.1 
			242.7,156.5 139.6,259.6 		"/>
	</g>
	<polygon id="path24" class="st1" points="243.4,1.8 552.8,1.8 552.8,53.4 243.4,53.4 	"/>
	<polygon id="path26" class="st2" points="243.4,40.5 565.7,40.5 565.7,53.4 243.4,53.4 	"/>
	<polygon id="path28" class="st0" points="501.2,53.4 243.4,53.4 243.4,156.5 501.2,156.5 	"/>
	<polygon id="path30" class="st3" points="260.6,130.7 277.8,130.7 277.8,117.8 260.6,117.8 	"/>
	<g id="g32" transform="translate(344.493244, 115.435739)">
		<polygon id="path34" class="st2" points="-49.5,15.3 -66.7,15.3 -66.7,2.4 -49.5,2.4 -32.3,2.4 -32.3,15.3 		"/>
	</g>
	<g id="g36" transform="translate(378.870920, 115.435739)">
		<polygon id="path38" class="st3" points="-49.5,15.3 -66.7,15.3 -66.7,2.4 -49.5,2.4 -32.3,2.4 -32.3,15.3 		"/>
	</g>
	<g id="g40" transform="translate(413.247163, 115.435739)">
		<polygon id="path42" class="st2" points="-49.5,15.3 -66.7,15.3 -66.7,2.4 -49.5,2.4 -32.3,2.4 -32.3,15.3 		"/>
	</g>
	<g id="g44" transform="translate(447.624839, 115.435739)">
		<polygon id="path46" class="st3" points="-49.5,15.3 -66.7,15.3 -66.7,2.4 -49.5,2.4 -32.3,2.4 -32.3,15.3 		"/>
	</g>
	<g id="g48" transform="translate(482.002515, 115.435739)">
		<polygon id="path50" class="st2" points="-49.5,15.3 -66.7,15.3 -66.7,2.4 -49.5,2.4 -32.3,2.4 -32.3,15.3 		"/>
	</g>
	<g id="g52" transform="translate(516.380190, 115.435739)">
		<polygon id="path54" class="st3" points="-49.5,15.3 -66.7,15.3 -66.7,2.4 -49.5,2.4 -32.3,2.4 -32.3,15.3 		"/>
	</g>
	<polygon id="path56" class="st1" points="-66,104.9 -48.8,104.9 -48.8,156.5 -66,156.5 	"/>
	<g id="g58" transform="translate(17.905326, 103.103035)">
		<polygon id="path60" class="st2" points="-49.5,53.4 -66.7,53.4 -66.7,1.8 -49.5,1.8 -32.3,1.8 -32.3,53.4 		"/>
	</g>
	<g id="g62" transform="translate(52.283001, 103.103035)">
		<polygon id="path64" class="st1" points="-49.5,53.4 -66.7,53.4 -66.7,1.8 -49.5,1.8 -32.3,1.8 -32.3,53.4 		"/>
	</g>
	<g id="g66" transform="translate(86.660677, 103.103035)">
		<polygon id="path68" class="st2" points="-49.5,53.4 -66.7,53.4 -66.7,1.8 -49.5,1.8 -32.3,1.8 -32.3,53.4 		"/>
	</g>
	<g id="g70" transform="translate(121.038353, 103.103035)">
		<polygon id="path72" class="st1" points="-49.5,53.4 -66.7,53.4 -66.7,1.8 -49.5,1.8 -32.3,1.8 -32.3,53.4 		"/>
	</g>
	<g id="g74" transform="translate(155.416028, 103.103035)">
		<polygon id="path76" class="st2" points="-49.5,53.4 -66.7,53.4 -66.7,1.8 -49.5,1.8 -32.3,1.8 -32.3,53.4 		"/>
	</g>
	<g id="g78" transform="translate(189.793704, 103.103035)">
		<polygon id="path80" class="st1" points="-49.5,53.4 -66.7,53.4 -66.7,1.8 -49.5,1.8 -32.3,1.8 -32.3,53.4 		"/>
	</g>
	<g id="g82" transform="translate(292.925299, 103.103035)">
		<polygon id="path84" class="st2" points="156.8,53.4 79.4,568.9 2.1,568.9 2.1,465.8 53.6,53.4 -49.5,53.4 -66.7,53.4 -66.7,1.8 
			-49.5,1.8 -49.5,40.5 221.2,40.5 221.2,53.4 		"/>
	</g>
	<g id="g86" transform="translate(224.171380, 103.103035)">
		<polygon id="path88" class="st2" points="-49.5,53.4 -66.7,53.4 -66.7,1.8 -49.5,1.8 -32.3,1.8 -32.3,53.4 		"/>
	</g>
	<g id="g90" transform="translate(258.549055, 103.103035)">
		<polygon id="path92" class="st1" points="-49.5,53.4 -66.7,53.4 -66.7,1.8 -49.5,1.8 -32.3,1.8 -32.3,53.4 		"/>
	</g>
</g>
</svg>
