<?xml version="1.0" encoding="UTF-8"?>
<svg width="212px" height="54px" viewBox="0 0 212 54" version="1.1" xmlns="http://www.w3.org/2000/svg" xmlns:xlink="http://www.w3.org/1999/xlink">
    <title>logo@2x</title>
    <g id="Index" stroke="none" stroke-width="1" fill="none" fill-rule="evenodd">
        <g id="Desktop-HD" transform="translate(-182.000000, -39.000000)" fill-rule="nonzero">
            <g id="logo" transform="translate(182.000000, 39.000000)">
                <path d="M45.232239,43.7121729 C32.5929673,56.3987446 22.1187254,56.3987446 9.47945376,43.7121729 C-3.15981792,31.0256011 -3.15981792,20.5121613 9.47945376,7.82558952 C22.1187254,-4.86098225 29.0971394,0.0900371168 45.232239,7.82558952 C62.446543,16.072858 57.8715107,31.0256011 45.232239,43.7121729 Z" id="Path" fill="#8E8EA8"></path>
                <polygon id="Path" fill="#F5EFED" points="25.7538462 23.3194094 25.7538462 11.6886402 14.1230769 23.3194094 14.1230769 34.9501786 37.3846154 34.9501786 37.3846154 23.3194094 37.3846154 11.6886402"></polygon>
                <polygon id="Path" fill="#8E8EA8" points="79.7538462 11.6886402 86.6194732 11.6886402 92.2153846 20.6933161 97.8112961 11.6886402 104.676923 11.6886402 104.676923 34.9501786 98.1974467 34.9501786 98.1974467 21.5892391 92.2219295 30.6783136 92.0844861 30.6783136 86.1547835 21.6541611 86.1547835 34.9501786 79.7538462 34.9501786"></polygon>
                <path d="M117.943154,35.7798613 C116.578436,35.7964019 115.223455,35.5455681 113.952978,35.041201 C112.78297,34.5710802 111.713698,33.8768735 110.80387,32.9966948 C108.994259,31.2508857 107.979464,28.8254488 108.000315,26.2959906 L108.000315,26.2300388 C107.992511,24.9573508 108.247906,23.6970773 108.750103,22.5301422 C109.237902,21.3878693 109.947365,20.3562392 110.836469,19.4963588 C111.751515,18.6083943 112.827423,17.9074724 114.005138,17.4320671 C115.278494,16.9197441 116.638015,16.6621705 118.008352,16.6736212 C119.368109,16.6622444 120.716947,16.9198923 121.978968,17.4320671 C123.14674,17.9103899 124.216704,18.6036106 125.134597,19.4765732 C126.938583,21.2181157 127.952816,23.6350505 127.938308,26.1574918 L127.938308,26.2300388 C127.94376,27.5010537 127.686126,28.7591654 127.181843,29.9233403 C126.694802,31.0679701 125.985297,32.1019039 125.095477,32.9637189 C124.193933,33.8419224 123.136578,34.5400484 121.978968,35.0214154 C120.696632,35.5421131 119.324806,35.7999186 117.943154,35.7798613 L117.943154,35.7798613 Z M118.008352,30.312456 C118.548349,30.3204536 119.083887,30.2125588 119.579647,29.9958873 C120.032488,29.7954182 120.437238,29.4984737 120.766268,29.1253234 C121.094825,28.7364302 121.349071,28.2891573 121.516055,27.8062872 C121.693766,27.3139384 121.784256,26.7937481 121.783415,26.2696099 L121.783415,26.2036581 C121.785783,25.6647406 121.688484,25.1301248 121.496496,24.6274098 C121.319564,24.1376658 121.046811,23.6890445 120.694549,23.3083735 C120.348099,22.9384289 119.936938,22.6365592 119.481849,22.4180241 C119.00012,22.1913715 118.474417,22.0764542 117.943154,22.0816698 C117.404436,22.0719168 116.870202,22.1822492 116.378379,22.4048337 C115.924601,22.6036451 115.519521,22.9008322 115.191758,23.2753976 C114.857749,23.660372 114.602864,24.1087688 114.44197,24.5944339 C114.261179,25.08823 114.170603,25.6111492 114.174655,26.1377063 L114.174655,26.2036581 C114.170053,26.7400233 114.265156,27.2724847 114.45501,27.7733112 C114.632584,28.2627407 114.905262,28.7112391 115.256957,29.0923475 C115.602487,29.4713513 116.016281,29.7802441 116.476177,30.0024825 C116.957639,30.2201599 117.48116,30.3260732 118.008352,30.312456 L118.008352,30.312456 Z" id="Shape" fill="#8E8EA8"></path>
                <path d="M130.456156,17.1092941 L136.637737,17.1092941 L136.637737,19.7323614 C136.919921,19.3289033 137.229622,18.9480167 137.564339,18.5927769 C137.910397,18.2199655 138.298342,17.8938431 138.719419,17.62177 C139.163459,17.3363649 139.638771,17.109904 140.134709,16.9474597 C140.685321,16.7662202 141.259203,16.67749 141.835596,16.6844786 C143.496282,16.5770949 145.1185,17.244362 146.27821,18.5118597 C147.400349,19.9202856 147.968591,21.7339295 147.864858,23.5759304 L147.864858,35.7809478 L141.664238,35.7809478 L141.664238,25.6662925 C141.721541,24.8225313 141.481787,23.9862379 140.991499,23.3196925 C140.543653,22.7894277 139.897256,22.4979164 139.227146,22.5240063 C138.533216,22.4991791 137.861964,22.7883764 137.380288,23.3196925 C136.849872,23.9664385 136.582796,24.8104503 136.637737,25.6662925 L136.637737,35.7809478 L130.430769,35.7809478 L130.456156,17.1092941 Z" id="Path" fill="#8E8EA8"></path>
                <path d="M159.805486,35.7738888 C157.307393,35.8004042 154.902982,34.8105804 153.129749,33.025688 C151.356516,31.2407956 150.362329,28.8096757 150.369435,26.275794 L150.369435,26.2097433 C150.344437,22.3704816 152.619458,18.9000896 156.11963,17.4382066 C157.359572,16.9249462 158.687722,16.6667503 160.026898,16.6786232 C161.651441,16.6224621 163.261247,17.0078543 164.689571,17.7948805 C165.922914,18.5157668 166.967983,19.5259261 167.737239,20.740743 L163.439245,24.0432794 C163.048326,23.4876375 162.563243,23.0068111 162.00658,22.6231888 C161.41875,22.2627244 160.739272,22.0858353 160.052946,22.1145981 C159.561322,22.108699 159.075155,22.2195351 158.633306,22.4382467 C158.206142,22.6496955 157.826941,22.9488397 157.519734,23.3167214 C157.203563,23.69771 156.954617,24.1312047 156.783866,24.5981055 C156.604179,25.1020418 156.513788,25.6342419 156.516869,26.1701129 L156.516869,26.2427687 C156.513878,26.8001752 156.604158,27.3540556 156.783866,27.8808267 C156.949887,28.3619839 157.199067,28.8093062 157.519734,29.2018413 C157.833149,29.5713461 158.219059,29.8705337 158.652842,30.080316 C159.111926,30.295206 159.61249,30.4035174 160.118067,30.3973595 C160.791606,30.421811 161.457377,30.244953 162.032629,29.8887689 C162.610856,29.5050531 163.132654,29.0402944 163.582511,28.5083087 L167.815385,31.6126929 C166.999526,32.8367946 165.925051,33.8611737 164.670034,34.611396 C163.182172,35.4384047 161.500858,35.8401922 159.805486,35.7738888 L159.805486,35.7738888 Z" id="Path" fill="#8E8EA8"></path>
                <path d="M171.138462,10.8578709 L177.345606,10.8578709 L177.345606,19.8347137 C177.92905,19.0355373 178.634665,18.3436487 179.433694,17.7872466 C180.361597,17.1690449 181.445599,16.8598649 182.543613,16.9002332 C184.204347,16.7940252 185.826611,17.4539864 186.986355,18.7076064 C188.106178,20.0941306 188.67445,21.8807953 188.573048,23.6962234 L188.573048,35.7809478 L182.365904,35.7809478 L182.365904,25.7770369 C182.426935,24.9420787 182.186772,24.1135551 181.693146,23.4561295 C181.245814,22.9308953 180.599036,22.6424138 179.928743,22.6691552 C179.236399,22.6431 178.56652,22.9295216 178.088178,23.4561295 C177.564606,24.0988963 177.304476,24.9333271 177.364646,25.7770369 L177.364646,35.7809478 L171.157502,35.7809478 L171.138462,10.8578709 Z" id="Path" fill="#8E8EA8"></path>
                <path d="M201.013573,35.78018 C199.649747,35.7967207 198.295653,35.5458851 197.026007,35.0415141 C195.856764,34.5713897 194.788192,33.8771777 193.878959,32.9969923 C192.070532,31.2511699 191.0564,28.8257145 191.077238,26.2962371 L191.077238,26.2302847 C191.069439,24.957587 191.324667,23.6973039 191.826535,22.5303598 C192.314015,21.3880783 193.023014,20.3564403 193.911537,19.4965533 C194.825984,18.6085821 195.901189,17.9076548 197.078133,17.4322459 C198.350471,16.9192724 199.709229,16.6616729 201.078729,16.6737942 C202.444162,16.6598286 203.799006,16.9175255 205.066294,17.4322459 C206.233303,17.9105723 207.302566,18.6037983 208.219858,19.4767676 C210.024184,21.2167149 211.036087,23.6353204 211.015063,26.1577372 L211.015063,26.2302847 C211.022915,27.5008586 210.767665,28.7590005 210.265766,29.9236144 C209.779044,31.0682528 209.070003,32.1021946 208.180765,32.9640161 C207.26435,33.8478168 206.189548,34.5462429 205.014169,35.0217284 C203.74282,35.5381505 202.383383,35.7958788 201.013573,35.78018 Z M201.078729,30.3127331 C201.618372,30.3207307 202.15356,30.212835 202.648995,29.9961619 C203.099611,29.7955985 203.501949,29.4985959 203.828324,29.1255914 C204.161031,28.7387002 204.417576,28.2909775 204.584137,27.8065451 C204.761731,27.3141926 204.852163,26.7939983 204.851322,26.2698561 L204.851322,26.2039038 C204.853689,25.6649822 204.756453,25.1303623 204.56459,24.6276435 C204.387774,24.1378957 204.1152,23.689271 203.763168,23.3085972 C203.415822,22.9370496 203.002485,22.6350052 202.544745,22.4182409 C202.065891,22.1908378 201.542475,22.0758577 201.013573,22.0818841 C200.473154,22.0726644 199.93726,22.1829532 199.443306,22.4050504 C198.99269,22.6056139 198.590352,22.9026165 198.263977,23.275621 C197.930186,23.6605983 197.675468,24.1089985 197.51468,24.5946673 C197.334007,25.0884672 197.24349,25.6113904 197.247539,26.1379515 L197.247539,26.2039038 C197.24294,26.7402731 197.33798,27.2727385 197.527711,27.7735689 C197.705169,28.2630021 197.977668,28.7115039 198.329133,29.0926152 C198.674437,29.4716219 199.08796,29.7805171 199.547556,30.0027572 C200.028499,30.2210816 200.551824,30.3270253 201.078729,30.3127331 L201.078729,30.3127331 Z" id="Shape" fill="#8E8EA8"></path>
            </g>
        </g>
    </g>
</svg>