<?xml version="1.0" encoding="UTF-8"?>
<svg width="122px" height="124px" viewBox="0 0 122 124" version="1.1" xmlns="http://www.w3.org/2000/svg" xmlns:xlink="http://www.w3.org/1999/xlink">
    <title>Group 15@2x</title>
    <defs>
        <polygon id="path-1" points="0 59.3171649 58.6787231 59.3171649 58.6787231 117.999841 0 117.999841"></polygon>
        <polygon id="path-3" points="0.276709901 0.257809901 53.7417624 0.257809901 53.7417624 53.7231564 0.276709901 53.7231564"></polygon>
    </defs>
    <g id="Index" stroke="none" stroke-width="1" fill="none" fill-rule="evenodd">
        <g id="Desktop-HD" transform="translate(-577.000000, -2610.000000)">
            <g id="SERVICES" transform="translate(0.000000, 2162.023438)">
                <g id="Group-15" transform="translate(577.000000, 448.000000)">
                    <g id="Group-3" transform="translate(0.000000, 5.000000)">
                        <polygon id="Path-6" fill="#C7C7E9" points="14 80.6806858 23.7248363 93.1082077 39.4318145 102.117961 8.55290327 113.366269 3.87465434 108.555454"></polygon>
                        <polygon id="Path-2" fill="#FDD0B3" points="17.8481744 80.5692308 19.8242531 66.1729742 70.4474703 17 72.7357362 28 84.5790124 44.7060509 103.521913 46.595315 51.7031295 98.9690611 35.098179 98.9690611 24.0909003 94"></polygon>
                        <ellipse id="Oval" fill="#F8E16C" cx="95" cy="22.5" rx="22" ry="22.5"></ellipse>
                        <mask id="mask-2" fill="white">
                            <use xlink:href="#path-1"></use>
                        </mask>
                        <g id="Clip-2"></g>
                        <path d="M58.623782,91.6034532 C57.5771964,93.8800027 55.202845,94.5183721 52.8566649,95.1896964 C52.0397009,95.4230387 51.0818811,95.1865072 50.4063045,94.6363721 C50.0671874,95.0201378 49.621764,95.360318 49.0429261,95.5777144 L9.63145766,110.36439 C9.28861982,110.493552 8.97023243,110.558399 8.68639459,110.558399 C8.11606126,110.558399 7.81096216,110.291039 7.65575495,110.066732 C7.30281802,109.558057 7.45058378,108.862282 7.63555676,108.368489 L22.4222324,68.9575523 C22.6619532,68.3186514 23.0648541,67.823264 23.527818,67.4602279 C23.5272865,67.4596964 23.5272865,67.4591649 23.5272865,67.4591649 C23.5070883,67.3751829 23.4906108,67.2906694 23.4778541,67.2056243 C23.4751964,67.1907414 23.4741333,67.1763901 23.4720072,67.1620387 C23.4629712,67.090282 23.4544667,67.0185252 23.4496829,66.9462369 C23.4480883,66.9260387 23.4480883,66.9058405 23.4470252,66.8851108 C23.443836,66.8181378 23.442773,66.7511649 23.443836,66.6841919 C23.4443676,66.6623991 23.4454306,66.6406063 23.4464937,66.618282 C23.4491514,66.5523721 23.4534036,66.4869937 23.460845,66.4216153 C23.4629712,66.399291 23.4656288,66.3780297 23.4682865,66.3557054 C23.476791,66.2897955 23.4874216,66.2244171 23.5001784,66.1595703 C23.5038991,66.1393721 23.5081514,66.1191739 23.5124036,66.0995072 C23.5272865,66.0320027 23.543764,65.9655613 23.5628991,65.8996514 C23.5676829,65.8826423 23.5729982,65.8661649 23.577782,65.8491559 C23.5990432,65.7795252 23.6234937,65.7109577 23.6506018,65.6429216 C23.6559171,65.6312279 23.6601694,65.6190027 23.6644216,65.607309 C23.695782,65.5328946 23.7298,65.4600748 23.7670072,65.3888495 C23.7691333,65.3845973 23.7712595,65.380345 23.7733856,65.3760928 C24.1039982,64.7520748 24.6823045,64.2683811 25.507773,64.1280568 L25.5083045,64.1280568 C25.8474216,62.6397685 26.6409982,61.1525432 28.0112865,59.7067775 C27.159773,59.4484532 26.274773,59.3171649 25.3818,59.3171649 C21.3171784,59.3171649 17.1186108,61.9089126 15.4549171,66.3434802 L0.668241441,105.754417 C-1.73853333,112.16894 2.68327748,117.999841 8.68639459,117.999841 C9.82759279,117.999841 11.0256649,117.789354 12.2455297,117.331705 L51.6569982,102.54503 C56.4615117,100.742075 59.0995027,95.9630748 58.623782,91.6034532" id="Fill-1" fill="#8E8EA8" mask="url(#mask-2)"></path>
                    </g>
                    <path d="M93,28 C93.5148792,28.7485238 94.0651149,29.4675246 94.6347967,30.1697199 C95.0568651,30.4758516 95.5195934,30.7488266 96,31 C94.9631703,30.0393641 93.9656747,29.0378501 93,28" id="Fill-4" fill="#000000"></path>
                    <path d="M111.74662,42.055532 C111.643732,42.1362599 111.539789,42.2164601 111.422127,42.2771378 C109.289438,43.3751417 107.222703,44.5733958 104.940694,45.3416292 C104.759188,45.4028346 104.582431,45.4355478 104.409368,45.4534873 L53.8131412,96.0497803 C50.2252428,99.6371558 45.4554484,101.613141 40.3817379,101.613141 C35.3080275,101.613141 30.5382331,99.6371558 26.9503347,96.0497803 C23.3629639,92.4618772 21.3869816,87.6920766 21.3869816,82.6183595 C21.3869816,77.5446424 23.3629639,72.7743142 26.9503347,69.1869387 L76.6532804,19.4839281 C76.6216225,16.4009696 76.6068488,13.3322572 77.2716652,10.2952027 C77.4194022,9.61877746 77.871583,9.08797885 78.446702,8.75557018 L77.6911328,8 L21.7273043,63.9633739 C11.4242319,74.2659322 11.4242319,90.9702593 21.7273043,101.272818 C26.8780491,106.423569 33.6312126,109 40.3817379,109 C47.1343738,109 53.8843715,106.424624 59.0366992,101.272818 L115,45.3089159 L111.74662,42.055532 Z" id="Fill-6" fill="#8E8EA8"></path>
                    <g id="Group-10" transform="translate(68.000000, 0.000000)">
                        <mask id="mask-4" fill="white">
                            <use xlink:href="#path-3"></use>
                        </mask>
                        <g id="Clip-9"></g>
                        <path d="M27.0095168,0.257809901 C20.1680911,0.257809901 13.3261307,2.86798812 8.10684356,8.0878099 C-2.33333465,18.5274535 -2.33333465,35.4535129 8.10684356,45.8931564 C13.3261307,51.1135129 20.1680911,53.7231564 27.0095168,53.7231564 C33.8509426,53.7231564 40.6923683,51.1135129 45.9116554,45.8931564 C56.3518337,35.4535129 56.3518337,18.5274535 45.9116554,8.0878099 C40.6923683,2.86798812 33.8509426,0.257809901 27.0095168,0.257809901 M27.0095168,7.74295842 C32.1502099,7.74295842 36.9840119,9.74523564 40.6191208,13.3803446 C44.2547644,17.0159881 46.2570416,21.8492554 46.2570416,26.9904832 C46.2570416,32.1317109 44.2547644,36.9655129 40.6191208,40.6006218 C36.9840119,44.2357307 32.1502099,46.2380079 27.0095168,46.2380079 C21.8682891,46.2380079 17.0344871,44.2357307 13.3993782,40.6006218 C5.89498218,33.0956911 5.89498218,20.8852752 13.3993782,13.3803446 C17.0344871,9.74523564 21.8682891,7.74295842 27.0095168,7.74295842" id="Fill-8" fill="#8E8EA8" mask="url(#mask-4)"></path>
                    </g>
                    <path d="M99.3891472,31.3891472 C97.2413435,33.5369509 93.7592065,33.5369509 91.6108528,31.3891472 C89.4630491,29.2413435 89.4630491,25.7586565 91.6108528,23.6108528 C93.7592065,21.4630491 97.2413435,21.4630491 99.3891472,23.6108528 C101.536951,25.7586565 101.536951,29.2413435 99.3891472,31.3891472" id="Fill-11" fill="#FFFFFF"></path>
                    <path d="M95.5002062,22 C94.0922238,22 92.6847914,22.53735 91.6112049,23.61095 C89.4629317,25.7587 89.4629317,29.2413 91.6112049,31.38905 C92.6847914,32.4632 94.0922238,33 95.5002062,33 C96.9076387,33 98.3150711,32.4632 99.3892076,31.38905 C101.536931,29.2413 101.536931,25.7587 99.3892076,23.61095 C98.3150711,22.53735 96.9076387,22 95.5002062,22" id="Fill-13" fill="#8E8EA8"></path>
                </g>
            </g>
        </g>
    </g>
</svg>