<?xml version="1.0" encoding="utf-8"?>
<!-- Generator: Adobe Illustrator 25.2.0, SVG Export Plug-In . SVG Version: 6.00 Build 0)  -->
<svg version="1.1" id="Layer_1" xmlns="http://www.w3.org/2000/svg" xmlns:xlink="http://www.w3.org/1999/xlink" x="0px" y="0px"
	 viewBox="0 0 21.4 69.1" style="enable-background:new 0 0 21.4 69.1;" xml:space="preserve">
<style type="text/css">
	.st0{fill-rule:evenodd;clip-rule:evenodd;fill:#C7C7E9;}
	.st1{fill-rule:evenodd;clip-rule:evenodd;fill:#FDD0B3;}
	.st2{fill-rule:evenodd;clip-rule:evenodd;fill:#F8E16C;}
	.st3{fill-rule:evenodd;clip-rule:evenodd;fill:#8E8EA8;}
	.st4{filter:url(#Adobe_OpacityMaskFilter);}
	.st5{fill-rule:evenodd;clip-rule:evenodd;fill:#FFFFFF;}
	.st6{mask:url(#mask-4_1_);fill-rule:evenodd;clip-rule:evenodd;fill:#8E8EA8;}
</style>
<polygon id="Path-6" class="st0" points="4.3,56.2 10.5,57 17.4,55.1 11.9,66.9 9.3,66.8 "/>
<polygon class="st1" points="20,10.8 14.1,17 6.1,15.2 2.4,12 1.9,48.4 5.3,54.5 10.8,57.1 15.3,54.9 19.9,48.9 "/>
<ellipse transform="matrix(0.7071 -0.7071 0.7071 0.7071 -4.4399 10.7113)" class="st2" cx="10.7" cy="10.7" rx="8.7" ry="8.9"/>
<path class="st3" d="M19.9,46.8c0.3,0.9-0.1,1.8-0.6,2.6c-0.2,0.3-0.5,0.5-0.8,0.5c0,0.2,0,0.4-0.1,0.6l-6.9,15.2
	c-0.1,0.1-0.1,0.2-0.2,0.3c-0.2,0.2-0.3,0.2-0.4,0.2c-0.2,0-0.4-0.3-0.5-0.5L3.4,50.6c-0.1-0.2-0.1-0.5-0.1-0.7c0,0,0,0,0,0
	c0,0-0.1,0-0.1-0.1c0,0,0,0,0,0c0,0,0,0-0.1-0.1c0,0,0,0,0,0c0,0,0,0-0.1-0.1c0,0,0,0,0,0c0,0,0,0-0.1-0.1c0,0,0,0,0,0
	c0,0,0,0,0-0.1c0,0,0,0,0,0c0,0,0,0,0-0.1c0,0,0,0,0,0c0,0,0-0.1,0-0.1c0,0,0,0,0,0c0,0,0-0.1,0-0.1c0,0,0,0,0,0
	c-0.1-0.3-0.1-0.6,0.1-0.8l0,0c-0.3-0.5-0.5-1.1-0.5-1.9c-0.3,0.2-0.6,0.4-0.8,0.6c-1.1,1.1-1.6,3-0.8,4.7l6.9,15.2
	c1.1,2.5,4,2.9,5.7,1.2c0.3-0.3,0.6-0.7,0.8-1.2L21,51.8C21.8,49.9,21.2,47.9,19.9,46.8z"/>
<path class="st3" d="M21.1,10.6l-1.6,4.5c0,0.1,0-1.1,0-1c-0.3,0.9-0.1,1.1-0.5,2c0,0.1-0.6,0.8-0.6,0.8l0,31.1c0,2-0.8,3.9-2.2,5.3
	s-3.3,2.2-5.3,2.2c-2,0-3.9-0.8-5.3-2.2S3.3,50,3.3,48l0-31.7c-0.9-0.9-1.7-1.2-2.4-2.2c-0.1-0.2-0.2-1.6-0.1-1.9L0,10.6L0.4,48
	c0,5.8,4.7,10.4,10.4,10.4c2.9,0,5.5-1.2,7.4-3.1c1.9-1.9,3.1-4.5,3.1-7.4L21.1,10.6z"/>
<g id="Group-10" transform="translate(68.000000, 0.000000)">
	<g id="Clip-9">
	</g>
	<defs>
		<filter id="Adobe_OpacityMaskFilter" filterUnits="userSpaceOnUse" x="-68" y="0" width="21.1" height="21.1">
			<feColorMatrix  type="matrix" values="1 0 0 0 0  0 1 0 0 0  0 0 1 0 0  0 0 0 1 0"/>
		</filter>
	</defs>
	<mask maskUnits="userSpaceOnUse" x="-68" y="0" width="21.1" height="21.1" id="mask-4_1_">
		<g class="st4">
			<polygon id="path-3_1_" class="st5" points="-72.4,10.6 -57.4,-4.4 -42.5,10.6 -57.4,25.5 			"/>
		</g>
	</mask>
	<path id="Fill-8_2_" class="st6" d="M-64.9,3.1C-66.8,5-68,7.7-68,10.6c0,5.8,4.7,10.6,10.6,10.6c2.9,0,5.6-1.2,7.5-3.1
		c1.9-1.9,3.1-4.6,3.1-7.5C-46.9,4.7-51.6,0-57.4,0C-60.3,0-63,1.2-64.9,3.1 M-62.8,5.2c1.4-1.4,3.3-2.2,5.4-2.2
		c2,0,3.9,0.8,5.4,2.2s2.2,3.3,2.2,5.4c0,2-0.8,3.9-2.2,5.4c-1.4,1.4-3.3,2.2-5.4,2.2c-4.2,0-7.6-3.4-7.6-7.6
		C-65,8.5-64.2,6.6-62.8,5.2"/>
</g>
<path id="Fill-11" class="st5" d="M13,10.6c0,1.2-1,2.2-2.2,2.2c-1.2,0-2.2-1-2.2-2.2c0-1.2,1-2.2,2.2-2.2S13,9.4,13,10.6"/>
<path class="st3" d="M10.8,8.4c-0.6,0-1.1,0.2-1.5,0.6C8.9,9.4,8.7,10,8.7,10.6c0,1.2,1,2.2,2.2,2.2c0.6,0,1.1-0.2,1.5-0.6
	c0.4-0.4,0.6-0.9,0.6-1.5C13,9.4,12.1,8.4,10.8,8.4z"/>
</svg>
